<?xml version="1.0" encoding="utf-8"?>
<!-- Generator: Adobe Illustrator 24.2.0, SVG Export Plug-In . SVG Version: 6.00 Build 0)  -->
<svg version="1.1" id="Capa_1" xmlns="http://www.w3.org/2000/svg" xmlns:xlink="http://www.w3.org/1999/xlink" x="0px" y="0px"
	 viewBox="0 0 141.2 99.7" style="enable-background:new 0 0 141.2 99.7;" xml:space="preserve">
<style type="text/css">
	.st0{filter:url(#Adobe_OpacityMaskFilter);}
	.st1{clip-path:url(#SVGID_12_);}
	.st2{filter:url(#Adobe_OpacityMaskFilter_1_);}
	.st3{clip-path:url(#SVGID_26_);}
	.st4{fill:#FFA300;}
	.st5{clip-path:url(#SVGID_30_);}
	.st6{fill:none;stroke:#EDD8B9;stroke-miterlimit:10;}
	.st7{fill:#EDD8B9;}
	.st8{fill:#AF936F;}
	.st9{clip-path:url(#SVGID_36_);}
	.st10{clip-path:url(#SVGID_40_);}
	.st11{clip-path:url(#SVGID_44_);}
	.st12{clip-path:url(#SVGID_52_);}
	.st13{clip-path:url(#SVGID_58_);}
	.st14{fill:none;stroke:#FFA300;stroke-miterlimit:10;}
	.st15{fill:none;stroke:#E20A17;stroke-miterlimit:10;}
	.st16{fill:none;}
	.st17{fill:none;stroke:#AF936F;stroke-miterlimit:10;}
</style>
<path class="st4" d="M132.9,53.1c1-1,1.7-2.5,1.6-4.1c-0.1-2.7-2-4.9-4.6-5.3c-1.6-0.3-3.1-1.3-3.7-2.8c-0.2-0.6-0.4-1.3-0.3-1.9
	c0.2-2.4,2.3-4.1,4.6-4.1c-1.2-2.9-4.3-4.8-7.7-4.3c-3.2,0.4-5.8,3-6.3,6.2c-0.6,3.9,1.9,8.1,5.4,9.1c-3.2,0.5-5.5,3.6-5.5,7
	c0,2.6,1.5,4.9,3.7,6c1.9-3,4.4-3.5,5.5-3.5c1.5,0,5.9,1.1,7.4,8.4c0.1,0.5,0.2,1,0.3,1.6c1.3,10.3-2.6,13.1-3.4,13.7
	c-0.5,0.4-2.5,1.5-4.3,1.5c-1.8,0-3.7-0.6-4.9-1.9c-1.8-2-2-3.8-1.8-5.4c-0.1,0-0.3,0-0.4,0c-4.5,0-8.1-3.6-8.1-8.1
	c0-1.6,0.5-3.1,1.3-4.4c-0.3,0-0.5,0-0.8,0c-4.8,0-8.8-3.9-8.8-8.8c0-1.9,0.6-3.6,1.6-5l-19.9,0c-0.2,0-0.3,0-0.5,0l-0.9,0.1
	c0,0-6.9,1.3-8.1,7.1c0,0-0.2-5.7,3.5-9.4c3.7-3.7,8.3-4.6,11.8-4.6c2.4,0,6.4,0,8.6,0c1.4-6.8,6.1-10.8,13-12
	c-0.9-2.1-1.4-4.3-1.4-6.7c0-6.8,4.1-12.6,9.9-15.2L83.7,5.8c-6.5,0-14.5,5.5-14.5,15.5c0,20.8-24.7,7.5-29,24.4
	c-0.9,4.3,0.6,7.1,1.8,8.9c0,0-4.1-1.5-4.2-8.1c0-0.4,0.1-1.1,0.1-1.4c-9.5-2.4-9.5-16.3,0.2-18.5c-0.8-0.6-2.2-1.7-3.2-3.4h0.8
	c1.3,1.4,3.4,2.5,6,3.1c0.8,0.2,1.6,0.3,2.5,0.4c4.2,0.4,6.7-0.9,7.8-2.6c-0.3-0.1-0.6-0.3-0.9-0.4c-0.5,0.1-1,0.2-1.5,0.2
	c-1.8,0-3.5-0.7-4.5-2.3c-0.8-1.2-2-2.1-3.4-2.5v-0.6c1.3-1,2.8-1.5,4.5-1.5c2,0,3.9,0.8,5.2,2.1c2.2,0,4-1.4,4.6-3.4
	c-0.1-1.9-1.7-3.4-3.6-3.5c0,0-0.1,0-0.2,0c-3.3,0-5.9-1-5.9-2.2c0-0.3,0.5-1.3,0.5-1.3c-1.5-0.6-3.1-1-4.8-1c-3.7,0-7.2,1-7.2,1
	c-4.8,1.2-9.1,4-12.7,7.3c0,0,2.6-6.7,12.7-9L17.1,3c8.1,4.9,2,10.8-7.1,10.7c6.7,3.6,3,9.2-3.3,13.6l8.1-0.9
	c-6.5,12.9-2.8,31.3,7.9,40.1c-1.2,2.5-3.4,4-6.3,4c-4.3-0.2-6.3-3.6-10.4-3.4c-2.6,0-4.6,1.6-5.2,4c1.1-0.9,3.6-1.9,5.4-0.9
	c0,0,0-0.1,0,0c0,0.1,0,0,0,0c-2.8,0.9-4.4,4.2-3.6,7.4c0.6-1.7,2-3.6,4.6-3.5c-1.2,1.6-1,4.5,0,6.2c0.3-4.9,6.6-5.6,9.3-2.7
	c5.1,1.4,11.1-0.3,13.7-4.8c-2.1-1.5-2.7-3-2.7-3c1.4,0.9,2.5,1.5,3.2,1.8l0.2,0.1c2.4,1,4.7,1.7,6,2c4.3,6-0.6,14-5.7,14
	c-4.3-0.2-6.3-3.6-10.4-3.4c-2.6,0-4.6,1.6-5.2,4c1.1-0.9,3.6-1.9,5.4-0.9c0,0,0-0.1,0,0c0,0.1,0,0,0,0c-2.8,0.9-4.4,4.2-3.6,7.4
	c0.6-1.7,2-3.6,4.6-3.5c-1.2,1.6-1,4.5,0,6.2c0.3-4.9,6.5-5.5,9.3-2.7c0,0,1.7,0.3,3.4-0.1c9.3-2,15.1-9.2,14.8-20.8h5.8
	c0,5.4,4.7,9.7,10,9.1c0.1,2.4-1.5,5-4.1,6c-1.4,0.5-3.4,0.1-4.5-0.9c-2.2-1.9-6.1-2-8.1,0.3c0.2,0,0.5-0.1,0.7-0.1
	c1,0,1.8,0.4,2.5,1c-2.2,0.1-3.9,1.8-4,4c0.8-0.9,2-1.5,3.4-1.5c0.5,0,0.9,0.1,1.3,0.2c-0.2,0.2-0.4,0.4-0.6,0.7c0,0,0,0,0,0
	c-0.2,0.2-0.3,0.5-0.4,0.7c0,0,0,0.1,0,0.1c-0.3,0.6-0.4,1.2-0.4,1.8c0,0.7,0.1,1.3,0.4,1.8c0.8-2.1,2.8-3.6,5.2-3.6
	c1.8,0,3.4,0.9,4.4,2.2c0,0,0.1,0,0.1,0c6.1-1.6,11.3-6.3,13.2-13.3h0c0,0,0,0,0,0c0,0,0,0,0,0l0,0c0.6-2.1,0.8-4.2,0.7-6.4
	c-2.1-1.5-6.1-2.3-6.1-2.3h5.8h2.1h3.5c0,5.4,4.7,9.7,10,9.1c0.1,2.4-1.6,5.1-4.2,6.1c-1.5,0.6-3.3,0.2-4.5-0.9
	c-2.2-2-6.1-2-8.1,0.3c0.2,0,0.5-0.1,0.7-0.1c1,0,1.8,0.4,2.5,1c-2.2,0.1-3.9,1.8-4,4c0.8-0.9,2-1.5,3.4-1.5c0.5,0,0.9,0.1,1.3,0.2
	c-0.2,0.2-0.4,0.4-0.6,0.7c0,0,0,0,0,0c-0.2,0.2-0.3,0.5-0.4,0.7c0,0,0,0.1,0,0.1c-0.3,0.6-0.4,1.2-0.4,1.8c0,0.7,0.1,1.3,0.4,1.8
	c0.8-2.1,2.8-3.6,5.2-3.6c1.8,0,3.4,0.9,4.4,2.2c0,0,0.1,0,0.1,0c9.2-2.4,16.3-11.8,13.3-25.6c0,0,5.9,6.4,2.5,17.9
	c4,3.7,9.3,5.9,15.2,5.9c12.4,0,22-8,22-22.4C139.1,63.6,136.4,57.3,132.9,53.1z"/>
</svg>
