<?xml version="1.0" encoding="utf-8"?>
<!-- Generator: Adobe Illustrator 24.2.0, SVG Export Plug-In . SVG Version: 6.00 Build 0)  -->
<svg version="1.1" id="Capa_1" xmlns="http://www.w3.org/2000/svg" xmlns:xlink="http://www.w3.org/1999/xlink" x="0px" y="0px"
	 viewBox="0 0 536.9 237.6" style="enable-background:new 0 0 536.9 237.6;" xml:space="preserve">
<style type="text/css">
	.st0{filter:url(#Adobe_OpacityMaskFilter);}
	.st1{clip-path:url(#SVGID_12_);}
	.st2{filter:url(#Adobe_OpacityMaskFilter_1_);}
	.st3{clip-path:url(#SVGID_26_);}
	.st4{fill:#FFA300;}
	.st5{clip-path:url(#SVGID_30_);}
	.st6{fill:none;stroke:#EDD8B9;stroke-miterlimit:10;}
	.st7{fill:#EDD8B9;}
	.st8{fill:#AF936F;}
	.st9{clip-path:url(#SVGID_36_);}
	.st10{clip-path:url(#SVGID_40_);}
	.st11{clip-path:url(#SVGID_44_);}
	.st12{clip-path:url(#SVGID_52_);}
	.st13{clip-path:url(#SVGID_58_);}
	.st14{fill:none;stroke:#FFA300;stroke-miterlimit:10;}
	.st15{fill:none;stroke:#E20A17;stroke-miterlimit:10;}
	.st16{fill:none;}
	.st17{fill:none;stroke:#AF936F;stroke-miterlimit:10;}
</style>
<g>
	<path class="st7" d="M42.3,85.9c11.8,0,17.5-2.9,23.5-18.6L61.5,95c-5.6-1.4-12.7-1.6-19.3-1.6H2.8c8.3-3.8,9.6-7.9,9.6-14.4V18.3
		c0-6.7-1.2-10.9-9.6-14.4h32.6c-8.4,3.7-9.7,7.7-9.7,14.4v67.6H42.3z"/>
	<path class="st7" d="M140.8,63.1c0,18.8-7.9,32-31.5,32c-20.5,0-32.8-9.8-32.8-30.2V18.3c0-6.7-1.3-10.8-9.6-14.4h32.4
		c-8.3,3.7-9.6,7.7-9.6,14.4v44.2c0,18.9,7.5,24.9,21.9,24.9c13.8,0,21.1-6.2,21.1-22.8V18.3c0-6.7-1.3-10.8-9.6-14.4h27.2
		c-8.3,3.7-9.6,7.7-9.6,14.4V63.1z"/>
	<path class="st7" d="M241.7,3.9c-8.3,3.7-9.6,7.7-9.6,14.4v75.1H217c-5.4-21.8-34.1-50.5-44.4-74.6v57c0,8.7,2.6,13.9,15.9,17.6
		h-33.2c8.3-3.7,9.5-7.9,9.5-14.4V18.3c0-6.7-1.2-10.9-9.5-14.4h24.4c5.3,21.8,34.5,50.8,44.6,75V21.5c0-8.8-2.8-13.9-16-17.6H241.7
		z"/>
	<path class="st7" d="M300.9,93.4c5.4-2,8-4.5,8-9.6c0-9.1-7.6-17.2-24.2-17.2c-7.9,0-14.8,1.7-20.2,4.2c-2,5.5-3.3,10-3.3,12.5
		c0,3.4,2.1,8.1,6.6,10.1h-23.6c3-2.9,6.6-10.4,10.1-18.2c10.5-24.2,23.6-58,23.6-64.2c0-2.1-1.4-5.6-2.9-7.1h18
		c2.1,9.6,15.8,45.6,26.8,71.3c3.3,7.6,6.6,14.8,9.8,18.2H300.9z M288.4,58.7c3.7,0,7.6,0.5,11.3,1.4c-4.6-11.7-12.1-30.5-15.9-40.8
		c-2.8,10.8-10.9,29.4-16.5,44.1C273.5,60.4,281.1,58.7,288.4,58.7z"/>
	<path class="st7" d="M94.8,218.7c-0.7,9.1-5.5,15.9-16,15.9c-6.3,0-12.6-2.4-18.4-6.4c-7.2,4.3-15.6,6.4-23.4,6.4
		c-17.3,0-32.4-10-32.4-27c0-13.8,10-23.4,22.8-28.4c-1.6-5.6-2.5-10.9-2.5-15.6c0-13.8,8-22.6,21.7-22.6c12.7,0,18.1,7.9,18.1,15.4
		c0,10-9.6,18-24.3,21.8c1.6,4.6,3.5,9.3,5.8,13.9c5.3-6.2,13.1-9.8,20.5-9.8c10.1,0,18.4,6.8,18.4,16.8c0,8.7-6,16.1-13.9,21.4
		c4.1,2.2,8.3,3.5,12.5,3.5C88.8,223.9,92.6,222,94.8,218.7z M56.6,225.2C44,215,33.5,197.7,28.4,182c-6.3,5-10.9,11.8-10.9,20.9
		c0,15.5,12.5,25.1,26.1,25.1C47.8,228,52.3,227.1,56.6,225.2z M37.3,160c0,4.7,0.8,9.8,2.2,15.1c9.3-3.9,15-12.1,15-19.7
		c0-6.6-3.8-10.2-8.3-10.2C39.8,145.2,37.3,151.6,37.3,160z M47.8,194.8c5.3,9.5,12.3,18,19.8,23.4c4.6-4.1,7.7-8.9,7.7-14.7
		c0-7.9-5.6-14.4-14-14.4C56.9,189,52,191,47.8,194.8z"/>
	<path class="st7" d="M163.7,143.1c16.5,0,25.3,8.4,25.3,24c0,17.9-11.4,27.7-28.2,30.2l-15.6,2.2v18.6c0,6.6,2.1,10.8,13.4,14.4
		h-36.1c8.3-3.7,9.6-7.9,9.6-14.4v-60.6c0-6.7-1.3-10.9-9.6-14.4H163.7z M157.6,191.1c9.8,0,18.2-6.2,18.2-21.5
		c0-14.8-7.7-19.6-16.4-19.6h-14.2v41.1H157.6z"/>
	<path class="st7" d="M239.2,232.6c5.4-2,8-4.5,8-9.6c0-9.1-7.6-17.2-24.2-17.2c-7.9,0-14.8,1.7-20.2,4.2c-2,5.5-3.3,10-3.3,12.5
		c0,3.4,2.1,8.1,6.6,10.1h-23.6c3-2.9,6.6-10.4,10.1-18.2c10.5-24.2,23.6-58,23.6-64.2c0-2.1-1.4-5.6-2.9-7.1h18
		c2.1,9.6,15.8,45.6,26.8,71.3c3.3,7.6,6.6,14.8,9.8,18.2H239.2z M226.7,197.9c3.7,0,7.6,0.5,11.3,1.4
		c-4.6-11.7-12.1-30.5-15.9-40.8c-2.8,10.8-10.9,29.4-16.5,44.1C211.8,199.6,219.4,197.9,226.7,197.9z"/>
	<path class="st7" d="M357,143.1c-8.3,3.7-9.6,7.7-9.6,14.4v75.1h-15.1c-5.4-21.8-34.1-50.5-44.4-74.6v57c0,8.7,2.6,13.9,15.9,17.6
		h-33.2c8.3-3.7,9.5-7.9,9.5-14.4v-60.6c0-6.7-1.2-10.9-9.5-14.4H295c5.3,21.8,34.5,50.8,44.6,75v-57.4c0-8.8-2.8-13.9-16-17.6H357z
		"/>
	<path class="st7" d="M445.2,186.1c0,32-20.1,46.5-41.5,46.5h-40.6c8.3-3.7,9.6-7.9,9.6-14.4v-60.6c0-6.7-1.3-10.8-9.6-14.4H405
		C426.3,143.1,445.2,155.4,445.2,186.1z M405,225.4c13.4,0,25.6-7.6,25.6-36.2c0-30.1-13.5-38.9-27.8-38.9H386v75.1H405z"/>
	<path class="st7" d="M504.8,232.6c5.4-2,8-4.5,8-9.6c0-9.1-7.6-17.2-24.2-17.2c-7.9,0-14.8,1.7-20.2,4.2c-2,5.5-3.3,10-3.3,12.5
		c0,3.4,2.1,8.1,6.6,10.1h-23.6c3-2.9,6.6-10.4,10.1-18.2c10.5-24.2,23.6-58,23.6-64.2c0-2.1-1.4-5.6-2.9-7.1h18
		c2.1,9.6,15.8,45.6,26.8,71.3c3.3,7.6,6.6,14.8,9.8,18.2H504.8z M492.3,197.9c3.7,0,7.6,0.5,11.3,1.4
		c-4.6-11.7-12.1-30.5-15.9-40.8c-2.8,10.8-10.9,29.4-16.5,44.1C477.3,199.6,485,197.9,492.3,197.9z"/>
</g>
</svg>
