<?xml version="1.0" encoding="utf-8"?>
<!-- Generator: Adobe Illustrator 24.2.0, SVG Export Plug-In . SVG Version: 6.00 Build 0)  -->
<svg version="1.1" id="Capa_1" xmlns="http://www.w3.org/2000/svg" xmlns:xlink="http://www.w3.org/1999/xlink" x="0px" y="0px"
	 viewBox="0 0 1008.4 112.9" style="enable-background:new 0 0 1008.4 112.9;" xml:space="preserve">
<style type="text/css">
	.st0{filter:url(#Adobe_OpacityMaskFilter);}
	.st1{clip-path:url(#SVGID_12_);}
	.st2{filter:url(#Adobe_OpacityMaskFilter_1_);}
	.st3{filter:url(#Adobe_OpacityMaskFilter_2_);}
	.st4{filter:url(#Adobe_OpacityMaskFilter_3_);}
	.st5{clip-path:url(#SVGID_32_);}
	.st6{clip-path:url(#SVGID_38_);}
	.st7{clip-path:url(#SVGID_42_);}
	.st8{fill:#FFA300;}
	.st9{clip-path:url(#SVGID_46_);}
	.st10{fill:none;stroke:#EDD8B9;stroke-miterlimit:10;}
	.st11{fill:#EDD8B9;}
	.st12{fill:#AF936F;}
	.st13{clip-path:url(#SVGID_52_);}
	.st14{clip-path:url(#SVGID_56_);}
	.st15{clip-path:url(#SVGID_60_);}
	.st16{clip-path:url(#SVGID_68_);}
	.st17{clip-path:url(#SVGID_74_);}
	.st18{fill:none;stroke:#FFA300;stroke-miterlimit:10;}
	.st19{fill:none;stroke:#E20A17;stroke-miterlimit:10;}
	.st20{fill:none;}
	.st21{fill:none;stroke:#AF936F;stroke-miterlimit:10;}
</style>
<g>
	<path class="st8" d="M136.8,59.4c1-1,1.7-2.5,1.6-4.1c-0.1-2.7-2-4.9-4.6-5.3c-1.6-0.3-3.1-1.3-3.7-2.8c-0.2-0.6-0.4-1.3-0.3-1.9
		c0.2-2.4,2.3-4.1,4.6-4.1c-1.2-2.9-4.3-4.8-7.7-4.3c-3.2,0.4-5.8,3-6.3,6.2c-0.6,3.9,1.9,8.1,5.4,9.1c-3.2,0.5-5.5,3.6-5.5,7
		c0,2.6,1.5,4.9,3.7,6c1.9-3,4.4-3.5,5.5-3.5c1.5,0,5.9,1.1,7.4,8.4c0.1,0.5,0.2,1,0.3,1.6c1.3,10.3-2.6,13.1-3.4,13.7
		c-0.5,0.4-2.5,1.5-4.3,1.5c-1.8,0-3.7-0.6-4.9-1.9c-1.8-2-2-3.8-1.8-5.4c-0.1,0-0.3,0-0.4,0c-4.5,0-8.1-3.6-8.1-8.1
		c0-1.6,0.5-3.1,1.3-4.4c-0.3,0-0.5,0-0.8,0c-4.8,0-8.8-3.9-8.8-8.8c0-1.9,0.6-3.6,1.6-5l-19.9,0c-0.2,0-0.3,0-0.5,0l-0.9,0.1
		c0,0-6.9,1.3-8.1,7.1c0,0-0.2-5.7,3.5-9.4c3.7-3.7,8.3-4.6,11.8-4.6c2.4,0,6.4,0,8.6,0c1.4-6.8,6.1-10.8,13-12
		c-0.9-2.1-1.4-4.3-1.4-6.7c0-6.8,4.1-12.6,9.9-15.2l-36.3-0.4c-6.5,0-14.5,5.5-14.5,15.5c0,20.8-24.7,7.5-29,24.4
		c-0.9,4.3,0.6,7.1,1.8,8.9c0,0-4.1-1.5-4.2-8.1c0-0.4,0.1-1.1,0.1-1.4c-9.5-2.4-9.5-16.3,0.2-18.5c-0.8-0.6-2.2-1.7-3.2-3.4h0.8
		c1.3,1.4,3.4,2.5,6,3.1c0.8,0.2,1.6,0.3,2.5,0.4c4.2,0.4,6.7-0.9,7.8-2.6c-0.3-0.1-0.6-0.3-0.9-0.4c-0.5,0.1-1,0.2-1.5,0.2
		c-1.8,0-3.5-0.7-4.5-2.3c-0.8-1.2-2-2.1-3.4-2.5v-0.6c1.3-1,2.8-1.5,4.5-1.5c2,0,3.9,0.8,5.2,2.1c2.2,0,4-1.4,4.6-3.4
		c-0.1-1.9-1.7-3.4-3.6-3.5c0,0-0.1,0-0.2,0c-3.3,0-5.9-1-5.9-2.2c0-0.3,0.5-1.3,0.5-1.3c-1.5-0.6-3.1-1-4.8-1c-3.7,0-7.2,1-7.2,1
		c-4.8,1.2-9.1,4-12.7,7.3c0,0,2.6-6.7,12.7-9L21,9.2c8.1,4.9,2,10.8-7.1,10.7c6.7,3.6,3,9.2-3.3,13.6l8.1-0.9
		c-6.5,12.9-2.8,31.3,7.9,40.1c-1.2,2.5-3.4,4-6.3,4c-4.3-0.2-6.3-3.6-10.4-3.4c-2.6,0-4.6,1.6-5.2,4c1.1-0.9,3.6-1.9,5.4-0.9
		c0,0,0-0.1,0,0c0,0.1,0,0,0,0c-2.8,0.9-4.4,4.2-3.6,7.4c0.6-1.7,2-3.6,4.6-3.5c-1.2,1.6-1,4.5,0,6.2c0.3-4.9,6.6-5.6,9.3-2.7
		c5.1,1.4,11.1-0.3,13.7-4.8c-2.1-1.5-2.7-3-2.7-3c1.4,0.9,2.5,1.5,3.2,1.8l0.2,0.1c2.4,1,4.7,1.7,6,2c4.3,6-0.6,14-5.7,14
		c-4.3-0.2-6.3-3.6-10.4-3.4c-2.6,0-4.6,1.6-5.2,4c1.1-0.9,3.6-1.9,5.4-0.9c0,0,0-0.1,0,0c0,0.1,0,0,0,0c-2.8,0.9-4.4,4.2-3.6,7.4
		c0.6-1.7,2-3.6,4.6-3.5c-1.2,1.6-1,4.5,0,6.2c0.3-4.9,6.5-5.5,9.3-2.7c0,0,1.7,0.3,3.4-0.1c9.3-2,15.1-9.2,14.8-20.8h5.8
		c0,5.4,4.7,9.7,10,9.1c0.1,2.4-1.5,5-4.1,6c-1.4,0.5-3.4,0.1-4.5-0.9c-2.2-1.9-6.1-2-8.1,0.3c0.2,0,0.5-0.1,0.7-0.1
		c1,0,1.8,0.4,2.5,1c-2.2,0.1-3.9,1.8-4,4c0.8-0.9,2-1.5,3.4-1.5c0.5,0,0.9,0.1,1.3,0.2c-0.2,0.2-0.4,0.4-0.6,0.7c0,0,0,0,0,0
		c-0.2,0.2-0.3,0.5-0.4,0.7c0,0,0,0.1,0,0.1c-0.3,0.6-0.4,1.2-0.4,1.8c0,0.7,0.1,1.3,0.4,1.8c0.8-2.1,2.8-3.6,5.2-3.6
		c1.8,0,3.4,0.9,4.4,2.2c0,0,0.1,0,0.1,0c6.1-1.6,11.3-6.3,13.2-13.3h0c0,0,0,0,0,0c0,0,0,0,0,0l0,0c0.6-2.1,0.8-4.2,0.7-6.4
		c-2.1-1.5-6.1-2.3-6.1-2.3h5.8h2.1h3.5c0,5.4,4.7,9.7,10,9.1c0.1,2.4-1.6,5.1-4.2,6.1c-1.5,0.6-3.3,0.2-4.5-0.9
		c-2.2-2-6.1-2-8.1,0.3c0.2,0,0.5-0.1,0.7-0.1c1,0,1.8,0.4,2.5,1c-2.2,0.1-3.9,1.8-4,4c0.8-0.9,2-1.5,3.4-1.5c0.5,0,0.9,0.1,1.3,0.2
		c-0.2,0.2-0.4,0.4-0.6,0.7c0,0,0,0,0,0c-0.2,0.2-0.3,0.5-0.4,0.7c0,0,0,0.1,0,0.1c-0.3,0.6-0.4,1.2-0.4,1.8c0,0.7,0.1,1.3,0.4,1.8
		c0.8-2.1,2.8-3.6,5.2-3.6c1.8,0,3.4,0.9,4.4,2.2c0,0,0.1,0,0.1,0c9.2-2.4,16.3-11.8,13.3-25.6c0,0,5.9,6.4,2.5,17.9
		c4,3.7,9.3,5.9,15.2,5.9c12.4,0,22-8,22-22.4C143,69.9,140.3,63.5,136.8,59.4z"/>
	<g>
		<path class="st11" d="M224.4,90.9c10.9,0,16.2-2.7,21.7-17.3l-4,25.6c-5.2-1.3-11.8-1.5-17.9-1.5h-36.5c7.7-3.5,8.9-7.3,8.9-13.4
			V28.3c0-6.2-1.1-10.1-8.9-13.4h30.1c-7.8,3.4-9,7.2-9,13.4v62.6H224.4z"/>
		<path class="st11" d="M315.5,69.7c0,17.4-7.3,29.6-29.2,29.6c-19,0-30.4-9.1-30.4-27.9V28.3c0-6.2-1.2-10-8.9-13.4h30
			c-7.7,3.4-8.9,7.2-8.9,13.4v40.9c0,17.5,6.9,23.1,20.3,23.1c12.8,0,19.6-5.7,19.6-21.1V28.3c0-6.2-1.2-10-8.9-13.4h25.2
			c-7.7,3.4-8.9,7.2-8.9,13.4V69.7z"/>
		<path class="st11" d="M408.9,14.9c-7.7,3.4-8.9,7.2-8.9,13.4v69.5h-14c-5-20.2-31.6-46.8-41.1-69v52.7c0,8,2.4,12.9,14.7,16.3H329
			c7.7-3.4,8.7-7.3,8.7-13.4V28.3c0-6.2-1.1-10.1-8.7-13.4h22.6c4.9,20.2,32,47,41.3,69.4V31.2c0-8.1-2.6-12.9-14.8-16.3H408.9z"/>
		<path class="st11" d="M463.7,97.8c5-1.8,7.4-4.1,7.4-8.9c0-8.4-7-15.9-22.4-15.9c-7.3,0-13.7,1.6-18.7,3.9c-1.8,5.1-3,9.2-3,11.5
			c0,3.2,1.9,7.5,6.1,9.4h-21.9c2.8-2.7,6.1-9.6,9.4-16.9c9.7-22.4,21.9-53.7,21.9-59.4c0-1.9-1.3-5.2-2.7-6.6h16.6
			c1.9,8.9,14.6,42.2,24.8,66c3,7,6.1,13.7,9.1,16.9H463.7z M452.2,65.7c3.4,0,7,0.5,10.4,1.3c-4.3-10.8-11.2-28.2-14.7-37.8
			c-2.6,10-10.1,27.2-15.3,40.8C438.3,67.3,445.4,65.7,452.2,65.7z"/>
		<path class="st11" d="M597.6,82.2c-0.6,8.4-5.1,14.7-14.8,14.7c-5.8,0-11.7-2.2-17-6c-6.7,4-14.5,6-21.6,6c-16,0-30-9.2-30-25
			c0-12.8,9.2-21.6,21.1-26.2c-1.5-5.2-2.3-10.1-2.3-14.5c0-12.8,7.4-20.9,20-20.9c11.8,0,16.8,7.3,16.8,14.2
			c0,9.2-8.9,16.6-22.5,20.2c1.5,4.3,3.3,8.6,5.3,12.9c4.9-5.7,12.1-9.1,19-9.1c9.4,0,17,6.3,17,15.6c0,8-5.6,14.9-12.9,19.8
			c3.8,2.1,7.7,3.3,11.5,3.3C592,87.1,595.5,85.3,597.6,82.2z M562.2,88.3c-11.7-9.5-21.4-25.5-26.1-40
			c-5.8,4.6-10.1,10.9-10.1,19.3c0,14.3,11.5,23.2,24.2,23.2C554.1,90.9,558.2,90,562.2,88.3z M544.4,27.9c0,4.4,0.7,9.1,2.1,14
			c8.6-3.6,13.9-11.2,13.9-18.2c0-6.1-3.5-9.5-7.7-9.5C546.7,14.2,544.4,20.1,544.4,27.9z M554.1,60.1c4.9,8.7,11.4,16.6,18.3,21.6
			c4.3-3.8,7.2-8.3,7.2-13.6c0-7.3-5.2-13.4-13-13.4C562.5,54.8,558,56.6,554.1,60.1z"/>
		<path class="st11" d="M661.4,12.2c15.3,0,23.4,7.8,23.4,22.2c0,16.5-10.6,25.6-26.1,27.9l-14.5,2.1v17.3c0,6.1,1.9,10,12.4,13.4
			h-33.4c7.7-3.4,8.9-7.3,8.9-13.4V25.6c0-6.2-1.2-10.1-8.9-13.4H661.4z M655.7,56.7c9.1,0,16.9-5.7,16.9-19.9
			c0-13.7-7.2-18.1-15.2-18.1h-13.1v38H655.7z"/>
		<path class="st11" d="M731.2,95.1c5-1.8,7.4-4.1,7.4-8.9c0-8.4-7-15.9-22.4-15.9c-7.3,0-13.7,1.6-18.7,3.9c-1.8,5.1-3,9.2-3,11.5
			c0,3.2,1.9,7.5,6.1,9.4h-21.9c2.8-2.7,6.1-9.6,9.4-16.9c9.7-22.4,21.9-53.7,21.9-59.4c0-1.9-1.3-5.2-2.7-6.6H724
			c1.9,8.9,14.6,42.2,24.8,66c3,7,6.1,13.7,9.1,16.9H731.2z M719.7,63c3.4,0,7,0.5,10.4,1.3c-4.3-10.8-11.2-28.2-14.7-37.8
			c-2.6,10-10.1,27.2-15.3,40.8C705.9,64.6,712.9,63,719.7,63z"/>
		<path class="st11" d="M840.2,12.2c-7.7,3.4-8.9,7.2-8.9,13.4v69.5h-14c-5-20.2-31.6-46.8-41.1-69v52.7c0,8,2.4,12.9,14.7,16.3
			h-30.7c7.7-3.4,8.7-7.3,8.7-13.4V25.6c0-6.2-1.1-10.1-8.7-13.4h22.6c4.9,20.2,32,47,41.3,69.4V28.5c0-8.1-2.6-12.9-14.8-16.3
			H840.2z"/>
		<path class="st11" d="M921.9,52.1c0,29.6-18.6,43-38.4,43h-37.5c7.7-3.4,8.9-7.3,8.9-13.4V25.6c0-6.2-1.2-10-8.9-13.4h38.8
			C904.4,12.2,921.9,23.7,921.9,52.1z M884.7,88.4c12.4,0,23.7-7,23.7-33.5c0-27.8-12.5-36-25.8-36h-15.6v69.5H884.7z"/>
		<path class="st11" d="M977,95.1c5-1.8,7.4-4.1,7.4-8.9c0-8.4-7-15.9-22.4-15.9c-7.3,0-13.7,1.6-18.7,3.9c-1.8,5.1-3,9.2-3,11.5
			c0,3.2,1.9,7.5,6.1,9.4h-21.9c2.8-2.7,6.1-9.6,9.4-16.9c9.7-22.4,21.9-53.7,21.9-59.4c0-1.9-1.3-5.2-2.7-6.6h16.6
			c1.9,8.9,14.6,42.2,24.8,66c3,7,6.1,13.7,9.1,16.9H977z M965.5,63c3.4,0,7,0.5,10.4,1.3c-4.3-10.8-11.2-28.2-14.7-37.8
			c-2.6,10-10.1,27.2-15.3,40.8C951.6,64.6,958.7,63,965.5,63z"/>
	</g>
</g>
</svg>
