<svg width="849" height="113" viewBox="0 0 849 113" fill="none" xmlns="http://www.w3.org/2000/svg">
<path d="M53.7 92.6001C64.6 92.6001 69.9 89.9001 75.4 75.3001L71.4 100.9C66.2 99.6001 59.6 99.4001 53.5 99.4001H17C24.7 95.9001 25.9 92.1001 25.9 86.0001V30.0001C25.9 23.8001 24.8 19.9001 17 16.6001H47.1C39.3 20.0001 38.1 23.8001 38.1 30.0001V92.6001H53.7Z" fill="#EDD8B9"/>
<path d="M144.8 71.4001C144.8 88.8001 137.5 101 115.6 101C96.6 101 85.2 91.9001 85.2 73.1001V30.0001C85.2 23.8001 84 20.0001 76.3 16.6001H106.3C98.6 20.0001 97.4001 23.8001 97.4001 30.0001V70.9001C97.4001 88.4001 104.3 94.0001 117.7 94.0001C130.5 94.0001 137.3 88.3001 137.3 72.9001V30.0001C137.3 23.8001 136.1 20.0001 128.4 16.6001H153.6C145.9 20.0001 144.7 23.8001 144.7 30.0001V71.4001H144.8Z" fill="#EDD8B9"/>
<path d="M238.2 16.6001C230.5 20.0001 229.3 23.8001 229.3 30.0001V99.5001H215.3C210.3 79.3001 183.7 52.7001 174.2 30.5001V83.2001C174.2 91.2001 176.6 96.1001 188.9 99.5001H158.3C166 96.1001 167 92.2001 167 86.1001V30.0001C167 23.8001 165.9 19.9001 158.3 16.6001H180.9C185.8 36.8001 212.9 63.6001 222.2 86.0001V32.9001C222.2 24.8001 219.6 20.0001 207.4 16.6001H238.2Z" fill="#EDD8B9"/>
<path d="M293 99.5001C298 97.7001 300.4 95.4001 300.4 90.6001C300.4 82.2001 293.4 74.7001 278 74.7001C270.7 74.7001 264.3 76.3001 259.3 78.6001C257.5 83.7001 256.3 87.8001 256.3 90.1001C256.3 93.3001 258.2 97.6001 262.4 99.5001H240.5C243.3 96.8001 246.6 89.9001 249.9 82.6001C259.6 60.2001 271.8 28.9001 271.8 23.2001C271.8 21.3001 270.5 18.0001 269.1 16.6001H285.7C287.6 25.5001 300.3 58.8001 310.5 82.6001C313.5 89.6001 316.6 96.3001 319.6 99.5001H293ZM281.5 67.4001C284.9 67.4001 288.5 67.9001 291.9 68.7001C287.6 57.9001 280.7 40.5001 277.2 30.9001C274.6 40.9001 267.1 58.1001 261.9 71.7001C267.6 69.0001 274.7 67.4001 281.5 67.4001Z" fill="#EDD8B9"/>
<path d="M426.9 83.9C426.3 92.3 421.8 98.6 412.1 98.6C406.3 98.6 400.4 96.4 395.1 92.6C388.4 96.6 380.6 98.6 373.5 98.6C357.5 98.6 343.5 89.4 343.5 73.6C343.5 60.8 352.7 52 364.6 47.4C363.1 42.2 362.3 37.3 362.3 32.9C362.3 20.1 369.7 12 382.3 12C394.1 12 399.1 19.3 399.1 26.2C399.1 35.4 390.2 42.8 376.6 46.4C378.1 50.7 379.9 55 381.9 59.3C386.8 53.6 394 50.2 400.9 50.2C410.3 50.2 417.9 56.5 417.9 65.8C417.9 73.8 412.3 80.7 405 85.6C408.8 87.7 412.7 88.9 416.5 88.9C421.3 88.8 424.8 87 426.9 83.9ZM391.5 90C379.8 80.5 370.1 64.5 365.4 50C359.6 54.6 355.3 60.9 355.3 69.3C355.3 83.6 366.8 92.5 379.5 92.5C383.4 92.6 387.5 91.7 391.5 90ZM373.7 29.6C373.7 34 374.4 38.7 375.8 43.6C384.4 40 389.7 32.4 389.7 25.4C389.7 19.3 386.2 15.9 382 15.9C376 15.9 373.7 21.8 373.7 29.6ZM383.4 61.8C388.3 70.5 394.8 78.4 401.7 83.4C406 79.6 408.9 75.1 408.9 69.8C408.9 62.5 403.7 56.4 395.9 56.4C391.8 56.5 387.3 58.3 383.4 61.8Z" fill="#EDD8B9"/>
<path d="M490.7 13.8999C506 13.8999 514.1 21.6999 514.1 36.0999C514.1 52.5999 503.5 61.6999 488 63.9999L473.5 66.0999V83.3999C473.5 89.4999 475.4 93.3999 485.9 96.7999H452.5C460.2 93.3999 461.4 89.4999 461.4 83.3999V27.2999C461.4 21.0999 460.2 17.1999 452.5 13.8999H490.7ZM485 58.3999C494.1 58.3999 501.9 52.6999 501.9 38.4999C501.9 24.7999 494.7 20.3999 486.7 20.3999H473.6V58.3999H485Z" fill="#EDD8B9"/>
<path d="M560.5 96.7999C565.5 94.9999 567.9 92.6999 567.9 87.8999C567.9 79.4999 560.9 71.9999 545.5 71.9999C538.2 71.9999 531.8 73.5999 526.8 75.8999C525 80.9999 523.8 85.0999 523.8 87.3999C523.8 90.5999 525.7 94.8999 529.9 96.7999H508C510.8 94.0999 514.1 87.1999 517.4 79.8999C527.1 57.4999 539.3 26.1999 539.3 20.4999C539.3 18.5999 538 15.2999 536.6 13.8999H553.3C555.2 22.7999 567.9 56.0999 578.1 79.8999C581.1 86.8999 584.2 93.5999 587.2 96.7999H560.5ZM549 64.6999C552.4 64.6999 556 65.1999 559.4 65.9999C555.1 55.1999 548.2 37.7999 544.7 28.1999C542.1 38.1999 534.6 55.3999 529.4 68.9999C535.2 66.2999 542.2 64.6999 549 64.6999Z" fill="#EDD8B9"/>
<path d="M669.5 13.8999C661.8 17.2999 660.6 21.0999 660.6 27.2999V96.7999H646.6C641.6 76.5999 615 49.9999 605.5 27.7999V80.4999C605.5 88.4999 607.9 93.3999 620.2 96.7999H589.5C597.2 93.3999 598.2 89.4999 598.2 83.3999V27.2999C598.2 21.0999 597.1 17.1999 589.5 13.8999H612.1C617 34.0999 644.1 60.8999 653.4 83.2999V30.1999C653.4 22.0999 650.8 17.2999 638.6 13.8999H669.5Z" fill="#EDD8B9"/>
<path d="M751.2 53.7999C751.2 83.3999 732.6 96.7999 712.8 96.7999H675.3C683 93.3999 684.2 89.4999 684.2 83.3999V27.2999C684.2 21.0999 683 17.2999 675.3 13.8999H714.1C733.7 13.8999 751.2 25.3999 751.2 53.7999ZM714 90.0999C726.4 90.0999 737.7 83.0999 737.7 56.5999C737.7 28.7999 725.2 20.5999 711.9 20.5999H696.3V90.0999H714Z" fill="#EDD8B9"/>
<path d="M806.3 96.7999C811.3 94.9999 813.7 92.6999 813.7 87.8999C813.7 79.4999 806.7 71.9999 791.3 71.9999C784 71.9999 777.6 73.5999 772.6 75.8999C770.8 80.9999 769.6 85.0999 769.6 87.3999C769.6 90.5999 771.5 94.8999 775.7 96.7999H753.8C756.6 94.0999 759.9 87.1999 763.2 79.8999C772.9 57.4999 785.1 26.1999 785.1 20.4999C785.1 18.5999 783.8 15.2999 782.4 13.8999H799C800.9 22.7999 813.6 56.0999 823.8 79.8999C826.8 86.8999 829.9 93.5999 832.9 96.7999H806.3ZM794.8 64.6999C798.2 64.6999 801.8 65.1999 805.2 65.9999C800.9 55.1999 794 37.7999 790.5 28.1999C787.9 38.1999 780.4 55.3999 775.2 68.9999C780.9 66.2999 788 64.6999 794.8 64.6999Z" fill="#EDD8B9"/>
</svg>
